<?xml version="1.0" encoding="UTF-8"?>
<svg width="512" height="512" viewBox="0 0 512 512" fill="none" xmlns="http://www.w3.org/2000/svg">
  <!-- Watch case -->
  <circle cx="256" cy="256" r="200" fill="#f0f0f0" stroke="#cccccc" stroke-width="8"/>
  <circle cx="256" cy="256" r="180" fill="#fafafa" stroke="#e0e0e0" stroke-width="4"/>
  
  <!-- Watch face -->
  <circle cx="256" cy="256" r="160" fill="white" stroke="#d0d0d0" stroke-width="2"/>
  
  <!-- Hour markers -->
  <line x1="256" y1="116" x2="256" y2="136" stroke="#888888" stroke-width="4" stroke-linecap="round"/>
  <line x1="256" y1="376" x2="256" y2="396" stroke="#888888" stroke-width="4" stroke-linecap="round"/>
  <line x1="116" y1="256" x2="136" y2="256" stroke="#888888" stroke-width="4" stroke-linecap="round"/>
  <line x1="376" y1="256" x2="396" y2="256" stroke="#888888" stroke-width="4" stroke-linecap="round"/>
  
  <!-- Diagonal hour markers -->
  <line x1="176" y1="176" x2="190" y2="190" stroke="#888888" stroke-width="3" stroke-linecap="round"/>
  <line x1="336" y1="176" x2="322" y2="190" stroke="#888888" stroke-width="3" stroke-linecap="round"/>
  <line x1="176" y1="336" x2="190" y2="322" stroke="#888888" stroke-width="3" stroke-linecap="round"/>
  <line x1="336" y1="336" x2="322" y2="322" stroke="#888888" stroke-width="3" stroke-linecap="round"/>
  
  <!-- Watch hands -->
  <line x1="256" y1="256" x2="256" y2="176" stroke="#555555" stroke-width="4" stroke-linecap="round"/>
  <line x1="256" y1="256" x2="336" y2="256" stroke="#555555" stroke-width="2" stroke-linecap="round"/>
  
  <!-- Center point -->
  <circle cx="256" cy="256" r="8" fill="#555555"/>
  
  <!-- Watch crown -->
  <rect x="396" y="246" width="16" height="20" rx="5" fill="#cccccc"/>
  
  <!-- Watch strap -->
  <path d="M256 456 L216 512 L296 512 L256 456 Z" fill="#e0e0e0"/>
  <path d="M256 56 L216 0 L296 0 L256 56 Z" fill="#e0e0e0"/>
  
  <!-- Text -->
  <text x="256" y="310" text-anchor="middle" font-family="Arial, sans-serif" font-size="16" fill="#888888">LUXURY</text>
  <text x="256" y="220" text-anchor="middle" font-family="Arial, sans-serif" font-size="14" fill="#888888">SWISS MADE</text>
</svg> 